<?xml version="1.0" encoding="utf-8"?>
<!-- Generator: Adobe Illustrator 26.0.2, SVG Export Plug-In . SVG Version: 6.00 Build 0)  -->
<svg version="1.1" id="Layer_1" xmlns="http://www.w3.org/2000/svg" xmlns:xlink="http://www.w3.org/1999/xlink" x="0px" y="0px"
	 viewBox="0 0 318.4 211" style="enable-background:new 0 0 318.4 211;" xml:space="preserve">
<style type="text/css">
	.st0{fill:#9CCEF0;}
	.st1{fill-rule:evenodd;clip-rule:evenodd;fill:#FFFFFF;}
	.st2{fill:#041A33;}
	.st3{fill-rule:evenodd;clip-rule:evenodd;fill:#50A9D9;}
	.st4{fill-rule:evenodd;clip-rule:evenodd;fill:#E0F3FF;}
	.st5{fill:#E0F3FF;}
	.st6{fill-rule:evenodd;clip-rule:evenodd;fill:#64B3DE;}
	.st7{fill:#FFC978;}
	.st8{fill:#FF7484;}
	.st9{fill:#FFFFFF;}
	.st10{fill:#FFA2AC;}
	.st11{fill-rule:evenodd;clip-rule:evenodd;fill:#F7A34A;}
</style>
<path class="st0" d="M111.7,107.7c-0.4-0.5-0.7-1-1.1-1.5s-0.8-1-1.1-1.5L109,104c-0.5,0.2-0.9,0.3-1.4,0.5
	c-1.1,0.3-2.3,0.6-3.4,0.9c-1.2,0.2-2.3,0.4-3.5,0.5s-2.4,0.2-3.6,0.2s-2.4,0-3.6-0.1s-2.4-0.2-3.6-0.4c-1-0.1-2.1-0.3-3.1-0.6
	c1.1,1.1,2.1,2.4,2.9,3.8c1.4,2.4,2.5,5.1,3.1,7.9c0.3,1.3,0.5,2.7,0.7,4c0.1,0.6,0.1,1.3,0.2,1.9l19.9-12.5c-0.2-0.3-0.4-0.6-0.6-1
	C112.4,108.7,112,108.2,111.7,107.7L111.7,107.7z"/>
<path class="st0" d="M39.5,156.7L67,139.4c-1.1-0.7-2.1-1.6-3.1-2.5c-1.4-1.3-2.6-2.7-3.7-4.3c-1-1.6-1.9-3.2-2.5-5
	c-0.3-0.7-0.5-1.4-0.7-2.2c-0.2-0.7-0.4-1.5-0.5-2.2c-0.1-0.8-0.2-1.5-0.3-2.3s-0.1-1.5-0.1-2.3c0-1,0.9-1.9,1.9-1.9
	s1.9,0.9,1.9,1.9v0.7c0,0.4,0,0.8,0,1.2c0,0.6,0.1,1.3,0.2,1.9c0.1,0.6,0.2,1.3,0.4,1.9s0.4,1.2,0.6,1.9c0.5,1.5,1.3,2.9,2.1,4.2
	c0.9,1.3,1.9,2.5,3.1,3.6s2.6,2.1,4,2.9c1.5,0.9,3,1.6,4.6,2.1l0,0c2.1,0.6,4.2,1.4,6.2,2.3c1.7,0.7,3.3,1.6,4.8,2.6
	c1.3,0.9,2.6,1.9,3.6,3.1c0.9,1,1.6,2.2,2.1,3.4v0.1c0.3,0.8,0.6,1.5,1.1,2.1c0.4,0.5,0.9,1,1.4,1.4c0.3,0.2,0.5,0.3,0.8,0.4
	c0.3,0.1,0.5,0.1,0.8,0.1s0.5-0.1,0.8-0.2c0.3-0.1,0.5-0.3,0.7-0.5c0.5-0.4,0.9-0.9,1.1-1.5c0.3-0.7,0.6-1.4,0.8-2.2
	c0.3-1.3,0.4-2.6,0.4-4c0-1.2-0.1-2.4-0.4-3.6c-0.3-1.1-0.7-2.1-1.2-3.1c-0.6-1-1.3-1.9-2.1-2.7c-1.1-1.1-2.1-2.1-2.9-3
	c-0.7-0.8-1.4-1.7-1.9-2.6c-0.5-0.9-0.9-1.8-1.2-2.8c-0.3-1.1-0.4-2.2-0.5-3.3v-0.1c0-1.4-0.1-2.7-0.2-4c-0.1-1.2-0.3-2.4-0.6-3.6
	c-0.5-2.3-1.4-4.6-2.5-6.6c-1.1-1.8-2.5-3.5-4.2-4.8c-1.4-1.1-3-1.9-4.7-2.4c-1.8-0.5-3.6-0.8-5.5-0.8c-0.7,0-1.4,0.1-2,0.1
	c-0.7,0.1-1.4,0.2-2,0.4c-1,0.2-2-0.4-2.3-1.4c-0.2-1,0.4-2,1.4-2.3c1.6-0.4,3.2-0.6,4.8-0.6h0.7c-0.9-0.6-1.7-1.2-2.5-1.8
	c-0.9-0.7-1.8-1.5-2.6-2.2c-0.8-0.8-1.6-1.6-2.3-2.5l-0.2-0.2c-2.1,2.2-4.1,4.4-5.9,6.6c-2.5,3-4.8,6.1-6.9,9.3
	c-2,3.1-3.9,6.3-5.6,9.6c-1.6,3.1-3,6.4-4.1,9.7c-1,2.8-1.8,5.6-2.4,8.4c-0.6,2.7-1,5.5-1.2,8.3c-0.2,2.7-0.2,5.4,0,8
	C39.1,153.9,39.3,155.3,39.5,156.7L39.5,156.7z"/>
<path class="st1" d="M91.3,94.5c10.1,0,23.9,27,23.2,37.6v0.3c-0.6,0.4-1.1,0.9-1.5,1.4c-2.3,0.9-4.3,2.4-5.8,4.3l-0.6,0.6
	c-0.7,0.5-1.2,1-1.8,1.6c-0.6,0-1.1,0.1-1.7,0.3c-1.2,0.2-2.3,0.6-3.4,1.2c-0.2-0.3-0.4-0.6-0.6-0.9c-0.1-0.1-0.2-0.3-0.3-0.4
	c-0.6-1-1.2-2-1.9-2.9c-0.3-0.9-0.6-1.8-1-2.7l0,0c-0.5-1.3-1.2-2.4-2.2-3.4c-0.4-0.4-0.8-0.8-1.3-1.1c-0.3-0.3-0.7-0.6-1.1-0.8
	c-0.1-0.1-0.3-0.2-0.4-0.3c0.1-0.5,0.2-1.1,0.2-1.7v-0.1c0.1-0.5,0.2-1,0.2-1.5v-3.6c0-1.7-0.6-3.3-1.7-4.5
	c-0.1-0.5-0.2-0.9-0.3-1.3c-0.2-0.8-0.4-1.7-0.8-2.4c-0.1-0.4-0.3-0.8-0.5-1.2l-0.1-0.3c-0.2-0.8-0.6-1.5-1-2.2
	c-0.2-0.5-0.5-1-0.8-1.5c-0.6-1.1-1.5-2.1-2.6-2.9c-0.5-0.5-1-0.9-1.6-1.2c-1.7-1.5-3.9-2.3-6.2-2.4h-0.5
	C79.8,97.3,81.2,94.5,91.3,94.5L91.3,94.5z"/>
<path class="st0" d="M29.8,162c0.3,0.1,0.5,0.2,0.8,0.3l5.2-3.3c-0.4-1.9-0.6-3.9-0.8-5.8c-0.2-2.9-0.3-5.8,0-8.7
	c0.1-1.8,0.3-3.6,0.6-5.3c-6.6-0.5-12.4,4.4-12.9,11C22.2,155.2,25.1,160,29.8,162L29.8,162z"/>
<path class="st0" d="M117.4,145.8c-0.9-1.8-2.1-3.4-3.5-4.8c-1.4-1.4-3-2.5-4.8-3.4l-0.1-0.1l-5.9,3.8c0,0.2,0.1,0.3,0.1,0.5
	c0.4,1.4,0.5,2.9,0.5,4.4c0,1.6-0.2,3.2-0.5,4.8l0,0c-0.3,1.2-0.7,2.3-1.2,3.3c-0.5,0.9-1.2,1.7-2,2.4c-0.5,0.4-1,0.7-1.6,1
	c2.1,7.2,0.3,15-4.9,20.5c-0.3,0.3-0.5,0.5-0.8,0.8c1,0.3,1.9,0.6,2.9,1h0.1c2.2,0.9,4.1,2.4,5.6,4.2h4.1c1.7,0,3.4,0,5.1-0.1
	c1.7,0,3.3-0.1,4.9-0.1s3.3-0.1,4.9-0.2c0.3,0,0.6-0.1,0.9-0.2c0.2-0.1,0.4-0.2,0.6-0.4c0.1-0.1,0.2-0.2,0.2-0.3
	c0.1-0.1,0.1-0.3,0.1-0.4c0-0.2,0-0.4,0-0.7c-0.1-0.3-0.1-0.5-0.2-0.7c-0.4-0.8-0.9-1.4-1.5-2c-0.8-0.7-1.7-1.2-2.6-1.6
	c-0.5-0.2-1-0.4-1.5-0.6c-0.5-0.2-1.1-0.3-1.6-0.5s-1.1-0.3-1.7-0.4c-0.4-0.1-0.8-0.2-1.2-0.3c-2,1.1-4.1,1.8-6.2,2.2l0,0
	c-0.6,0.1-1.1,0-1.6-0.4c-0.5-0.3-0.8-0.8-0.9-1.4c-0.1-0.6,0-1.2,0.3-1.7s0.8-0.8,1.4-0.9c1.9-0.4,3.7-1.1,5.4-2
	c1.7-1,3.3-2.2,4.6-3.7c1.3-1.5,2.4-3.1,3.3-4.9c0.8-1.8,1.4-3.8,1.6-5.8c0.3-2,0.2-4-0.2-6C119,149.6,118.4,147.6,117.4,145.8
	L117.4,145.8z"/>
<path class="st0" d="M96.6,185.9c-0.8-0.7-1.7-1.2-2.6-1.6c-1-0.4-2.1-0.8-3.2-1.1c-0.9-0.3-1.9-0.5-2.8-0.7c-1.9,1-3.9,1.7-5.9,2.1
	c-1.1,0.3-2.2-0.4-2.5-1.6c-0.3-1.1,0.4-2.2,1.6-2.5c0.1,0,0.1,0,0.2,0c9.2-1.7,15.3-10.6,13.5-19.8c-0.2-0.9-0.4-1.7-0.7-2.5
	c-0.6-0.2-1.2-0.5-1.8-0.8c-0.9-0.6-1.7-1.3-2.3-2.2c-0.7-1-1.3-2-1.7-3.2v-0.1c-0.1-0.3-0.3-0.6-0.5-1l-40.8,25.7
	c0.9,0.9,1.8,1.8,2.6,2.5c1.1,1.1,2.4,2,3.8,2.6c1.2,0.3,1.8,1.6,1.5,2.8c0,0.1-0.1,0.2-0.1,0.3c-0.5,0.9-0.7,1.8-0.8,2.8
	c0,1.4,1.1,2.6,2.5,2.7c0.1,0,0.2,0,0.4,0h0.1c9.9,0.5,19.9,0.6,29.8,0.4c3.3-0.1,6.6-0.1,9.7-0.3c1.2,0,2-0.7,1.7-1.9
	C98.1,187.5,97.5,186.5,96.6,185.9L96.6,185.9z"/>
<path class="st0" d="M63.5,80.2c0.2,0.9,0.5,1.7,0.9,2.6c0.3,0.8,0.7,1.7,1.2,2.5c0.3,0.5,0.5,1,0.8,1.4l0.1,0.2
	c0.2,0.3,0.3,0.5,0.5,0.8c0.3,0.5,0.6,0.9,1,1.3l0.1,0.2c0.2,0.3,0.4,0.5,0.6,0.8c0.6,0.8,1.3,1.5,2,2.2s1.5,1.3,2.3,2
	c0.8,0.6,1.6,1.2,2.5,1.8c0.9,0.6,1.8,1.1,2.7,1.6c0.9,0.5,1.9,0.9,2.9,1.4c1,0.4,2,0.8,3,1.1c1,0.3,2.1,0.6,3.1,0.9
	c1.1,0.2,2.1,0.4,3.2,0.6s2.2,0.3,3.3,0.3c1.1,0.1,2.2,0.1,3.3,0.1c1.1,0,2.1-0.1,3.2-0.2s2.1-0.3,3.1-0.5s1.9-0.4,2.8-0.7h0.2
	c1-0.3,2-0.6,2.9-1c0.4-0.2,0.8-0.4,1.2-0.5c0.4-0.2,1-0.5,1.5-0.7c0.9-0.5,1.7-1,2.5-1.5s1.6-1.1,2.3-1.7c0.7-0.6,1.4-1.2,2.1-1.9
	c0.6-0.7,1.2-1.4,1.8-2.1c0.6-0.7,1.1-1.5,1.5-2.2c1.4-2.3,2.4-4.8,2.9-7.5c0.2-0.9,0.3-1.8,0.4-2.7c0.1-0.9,0.1-1.8,0.1-2.7
	c0-0.9-0.1-1.8-0.2-2.7c-0.1-0.9-0.3-1.8-0.5-2.7c-0.2-0.9-0.5-1.8-0.8-2.7c-0.3-0.9-0.6-1.8-1-2.7c-0.4-0.9-0.8-1.7-1.3-2.6
	c-0.5-0.8-1-1.7-1.6-2.5s-1.2-1.6-1.8-2.4c-0.6-0.8-1.3-1.5-2-2.2s-1.4-1.4-2.2-2c-0.8-0.6-1.5-1.2-2.4-1.8
	c-0.8-0.6-1.7-1.1-2.5-1.6s-1.7-0.9-2.6-1.3c-0.9-0.4-1.8-0.8-2.7-1.1h-0.1c-0.9-0.3-1.8-0.5-2.7-0.8s-1.9-0.4-2.9-0.5
	s-2-0.2-2.9-0.3c-1-0.1-2-0.1-2.9,0c-1,0.1-2,0.1-2.9,0.3L89,46.6c-0.8,0.1-1.6,0.3-2.3,0.4c-1,0.2-1.9,0.5-2.8,0.8s-1.9,0.7-2.8,1
	c-0.9,0.4-1.8,0.8-2.7,1.3c-0.4,0.2-0.8,0.4-1.2,0.7c-0.4,0.2-0.9,0.6-1.4,0.9c-0.8,0.5-1.6,1.1-2.4,1.7c-0.8,0.6-1.5,1.3-2.2,1.9
	c-0.7,0.7-1.4,1.4-2,2.1c-0.6,0.7-1.2,1.5-1.7,2.2c-0.5,0.8-1,1.6-1.5,2.4c-0.5,0.8-0.9,1.6-1.2,2.5c-0.4,0.8-0.7,1.7-0.9,2.6
	c-0.3,0.9-0.5,1.7-0.7,2.6s-0.3,1.8-0.4,2.7C62.5,74.9,62.7,77.7,63.5,80.2L63.5,80.2z M108.9,69.5c2.2,0,4,1.9,3.9,4.1
	c0,2.2-1.9,4-4.1,3.9c-2.2,0-4-1.9-3.9-4.1c0-1.1,0.5-2.1,1.2-2.8C106.9,69.9,107.9,69.5,108.9,69.5z M103.3,91.3L103.3,91.3
	C103.2,91.2,103.3,91.2,103.3,91.3L103.3,91.3z M86.2,84.4c0.7,0.1,1.2,0.8,1,1.5C87,87,87.7,88,88.8,88.2h0.1c0.2,0,0.4,0,0.5,0
	c0.4-0.1,0.7-0.2,1-0.4c0.4-0.4,0.7-0.9,0.7-1.4c-0.4-0.3-0.8-0.6-1.1-0.9c-0.8-0.8-1.2-1.8-1.3-2.9c0-1,0.5-2,1.4-2.5
	c2.4-1.1,5.2-0.7,7.1,1c0.7,0.7,1,1.8,0.6,2.8s-1.1,1.9-2.1,2.4c-0.4,0.3-0.9,0.4-1.3,0.6c0,0.2-0.1,0.4-0.1,0.5
	c0,0.5,0.3,1.1,0.7,1.4c0.1,0.1,0.3,0.2,0.5,0.3c0.2,0.1,0.3,0.1,0.5,0.2c0.4,0.1,0.7,0,1.1-0.1c0.3-0.1,0.6-0.3,0.8-0.6
	c0.2-0.3,0.3-0.6,0.4-1c0.1-0.7,0.7-1.2,1.4-1.2c0.7,0.1,1.2,0.7,1.2,1.4c-0.2,1.7-1.3,3.2-2.8,3.8c-0.8,0.3-1.6,0.4-2.5,0.3
	c-0.4-0.1-0.8-0.2-1.1-0.4c-0.7-0.3-1.2-0.8-1.7-1.3c-0.1-0.2-0.3-0.4-0.4-0.6c-1.8,1.8-4.7,1.7-6.4,0c-1.1-1.1-1.5-2.6-1.2-4.1
	c0.1-0.3,0.3-0.6,0.5-0.8C85.5,84.4,85.9,84.3,86.2,84.4L86.2,84.4z M81.6,65.7c0-2.2-1.8-3.9-3.9-3.9c-2.2,0-3.9,1.8-3.9,3.9
	c0,2.2,1.8,3.9,3.9,3.9C79.8,69.6,81.6,67.9,81.6,65.7L81.6,65.7z"/>
<circle class="st2" cx="108.9" cy="73.5" r="4"/>
<circle class="st2" cx="81.5" cy="69.7" r="4"/>
<g>
	<path class="st1" d="M94.2,74.6c4.2,0.5,8,2.4,10.9,5.5c2.3,2.7,3.1,6.3,2.1,9.7c-1.1,3.5-3.4,6.5-6.6,8.5
		c-6.1,4.3-14.5,3.1-19.2-2.8c-2.5-2.8-3.9-6.3-3.9-10c0-3.5,1.8-6.8,4.8-8.7C85.9,74.6,90.1,73.9,94.2,74.6"/>
	<path class="st1" d="M112.3,62.9c-1.1-0.6-2.3-1-3.5-1c-1,0-1.9,0.4-2.5,1.1c-0.5,0.7-0.4,1.6,0.1,2.3c0.8,0.9,1.8,1.5,2.9,1.8
		c1.2,0.4,2.5,0.6,3.8,0.5c0.8,0.1,1.6-0.2,2.2-0.7c0.3-0.5,0.1-1.1-0.4-1.9C114.3,64.3,113.4,63.5,112.3,62.9"/>
	<path class="st1" d="M79.1,58.1c1.2-0.3,2.4-0.3,3.6,0c0.9,0.2,1.7,0.9,2.1,1.8c0.3,0.8,0,1.7-0.8,2.2c-1,0.6-2.1,0.9-3.3,0.9
		c-1.3,0-2.6-0.1-3.8-0.5c-1-0.3-1.8-0.8-1.9-1.3c-0.2-0.5,0.2-1.1,0.9-1.7C76.9,58.8,78,58.3,79.1,58.1"/>
	<path class="st1" d="M110.5,71.5c0.7-1.5,0.1-3.2-1.4-3.9c-1.5-0.7-3.2-0.1-3.9,1.4c-0.7,1.5-0.1,3.2,1.4,3.9
		C108,73.6,109.8,73,110.5,71.5"/>
	<path class="st1" d="M83.1,67.7c0.8,0,1.4,0.6,1.4,1.4s-0.6,1.4-1.4,1.4s-1.4-0.6-1.4-1.4l0,0C81.8,68.3,82.4,67.7,83.1,67.7"/>
	<path class="st3" d="M66.9,162.2c-6.4,2.3-10.9,4.4-13.3,6.3c-13.6-23.6-10.4-53.3,8-73.5C37,123.3,30.1,151.8,44,178.1
		c0.4-0.6,0.9-1.2,1.4-1.7l8,7.9c-0.7,4.7,1.3,7.7,6,8.8l14.4-2.3c-5.3-0.8-8-3.7-8-8.7c-0.3-3.4-1.8-6.6-4.3-9l29.2-21l-2.7-3.9
		L66.9,162.2z M53.4,171c0.8-0.7,1.7-1.3,2.6-1.8c0.4-0.3,0.7-0.5,1.1-0.8c1.1-1.1,2.6-2,4.1-2.4l-16,10.6c0.7-0.8,1.6-1.4,2.5-1.9
		c0.8-0.7,1.7-1.3,2.7-1.8c0.2-0.1,0.3-0.2,0.5-0.3c0.3-0.3,0.7-0.5,1-0.8C52.5,171.5,53,171.2,53.4,171L53.4,171z"/>
	<path class="st3" d="M39.2,155.7l-1.2,8.6c-7,1.7-14-2.6-15.7-9.6s2.6-14,9.6-15.7c0.6-0.1,1.3-0.3,1.9-0.3c-5,0.4-8.8,4.8-8.5,9.8
		c0.4,5,4.8,8.8,9.8,8.5C36.6,156.8,38,156.4,39.2,155.7"/>
	<path class="st3" d="M79.8,101.8v-1.6C70,88.5,62.9,88.4,58.5,99.8c2.7,2.3,6,3.7,9.5,3.9L79.8,101.8"/>
	<path class="st3" d="M90.9,153.4c4.7,3.4,7.1,3.6,7.5,0.6c-1.9,0.6-3.4-1-4.5-4.8c-1.3-5.6-6.3-10.3-14.7-14
		c-5.4-2.4-8.2-7.9-8.4-16.5c0.1-3.3-2.5-6.1-5.8-6.2c-3.3-0.1-6.1,2.5-6.2,5.8c0,0.2,0,0.4,0,0.6c0,2.5,0.3,5.1,0.8,7.5
		c-1.2-2.2-2.1-4.5-2.8-6.9c-3,9.2,0.3,19.2,8.2,24.9l6.3-4.5c-0.3-0.2-0.6-0.4-0.9-0.6c1.8,0.7,3.7,1.1,5.6,1.4
		C84.8,144.9,89.8,149.1,90.9,153.4"/>
	<path class="st4" d="M99.6,46.1c3.5-0.2,6.9,0.1,10.2,1.1c1,0.7,2.1,1.1,3.3,1.2c1.6,0.7,3.2,1.6,4.6,2.6c0.2,0.3,0.3,0.6,0.5,0.8
		l0.1,0.2c0.4,0.7,0.8,1.4,1.2,2.1c0.1,0.2,0.2,0.4,0.3,0.6c0.3,0.6,0.6,1.1,1,1.6c0.2,0.4,0.4,0.8,0.7,1.1c0.2,0.5,0.5,0.9,0.9,1.4
		l0.4,0.6c0.4,0.5,0.9,1,1.4,1.4c0.1,0.1,0.2,0.2,0.3,0.3c-0.1,1.2,0,2.4,0.4,3.6c0.2,0.4,0.3,0.9,0.4,1.4c0.1,0.4,0.2,0.8,0.3,1.2
		l0.1,0.4c0.2,0.7,0.2,1.4,0.4,2.1c0.1,0.5,0.2,1,0.4,1.5l0.3,1l0.1,0.5c0,0.1,0,0.2,0,0.3c0,0.6,0.1,1.3,0.3,1.9
		c0,0.5,0.1,1,0.2,1.5c-0.1,0.7-0.1,1.3,0,2l-1,6.8l0.3-0.6c-0.3,0.6-0.5,1.3-0.6,2c-0.3,0.7-0.5,1.4-0.6,2.1l-0.3,0.7
		c-0.2,0.6-0.4,1.2-0.5,1.9c-7.4,10.4-20.7,14.7-32.8,10.5c15.6,0.5,28.7-11.8,29.2-27.4C121.8,61.1,112.7,49.2,99.6,46.1"/>
	<path class="st3" d="M99.6,46.1c-14.9-5.6-31.4,2-37,16.8c-5.6,14.9,2,31.4,16.8,37c3.6,1.4,7.5,2,11.3,1.8
		c-15.1-4-24.2-19.4-20.2-34.5C74,54.2,86.1,45.4,99.6,46.1"/>
</g>
<path class="st5" d="M75.8,43.6c0.5,0.6,1,1.2,1.6,1.8l0.1,0.1c0.6-0.3,1.2-0.6,1.8-0.8c1-0.4,2.1-0.8,3.1-1.2
	c1.1-0.3,2.1-0.6,3.2-0.9l0.3-0.1c0.1-0.3,0.2-0.7,0.3-1c0.3-1,0.5-2.1,0.6-3.1c0.2-1.2,0.2-2.3,0.3-3.5c0-1.2,0-2.5-0.1-3.7
	s-0.3-2.5-0.5-3.8L86.4,27l0,0c-0.2-1.3-0.5-2.5-0.9-3.7c-0.3-1.2-0.7-2.3-1.2-3.4c-0.4-1.1-0.9-2.1-1.4-3.1c-0.5-0.9-1-1.8-1.6-2.6
	c-0.5-0.6-1-1.2-1.6-1.8c-0.5-0.5-1-0.9-1.6-1.2c-0.5-0.3-1-0.5-1.5-0.6c-0.4-0.1-0.9-0.1-1.4-0.1h-0.1c-0.4,0.1-0.9,0.3-1.2,0.6
	c-0.5,0.3-0.9,0.7-1.2,1.1c-0.4,0.6-0.8,1.2-1.1,1.8c-0.3,0.8-0.6,1.5-0.8,2.3c-0.3,1-0.5,2.1-0.6,3.1c-0.2,1.2-0.2,2.3-0.3,3.5
	c0,1.2,0,2.5,0.1,3.7s0.3,2.5,0.5,3.8l0.1,0.4v0.1c0.2,1.2,0.5,2.5,0.9,3.7c0.3,1.2,0.7,2.3,1.2,3.4c0.4,1.1,0.9,2.1,1.4,3.1
	C74.7,41.9,75.2,42.8,75.8,43.6L75.8,43.6z"/>
<path class="st5" d="M107.4,44.4c0.3,0.1,0.7,0.3,1,0.4c1,0.4,2,0.9,3,1.5c1,0.5,1.9,1.1,2.8,1.8c0.2,0.1,0.4,0.3,0.6,0.4l0.2-0.1
	c0.7-0.4,1.3-0.9,1.9-1.4c0.8-0.7,1.5-1.4,2.2-2.2c0.7-0.9,1.4-1.8,2.1-2.7c0.7-1,1.3-2,1.9-3.1s1.1-2.2,1.7-3.4l0.1-0.3
	c0.5-1.2,1-2.4,1.3-3.6c0.4-1.2,0.7-2.4,0.9-3.6c0.2-1.1,0.4-2.3,0.5-3.5c0.1-1.1,0.1-2.1,0.1-3.2c0-0.8-0.1-1.7-0.3-2.5
	c-0.1-0.7-0.3-1.3-0.6-2c-0.2-0.5-0.5-1-0.9-1.4c-0.3-0.3-0.7-0.6-1.1-0.8h-0.1c-0.4-0.2-0.9-0.2-1.3-0.2c-0.5,0-1.1,0.1-1.6,0.3
	c-0.6,0.2-1.2,0.5-1.8,0.9c-0.7,0.4-1.3,0.9-1.9,1.4c-0.8,0.7-1.5,1.4-2.2,2.2c-0.7,0.9-1.4,1.8-2.1,2.7c-0.7,1-1.3,2-1.9,3.1
	s-1.2,2.2-1.7,3.4v0.1l-0.1,0.3c-0.5,1.2-1,2.4-1.3,3.6c-0.4,1.2-0.7,2.4-0.9,3.6c-0.2,1.1-0.4,2.3-0.5,3.5
	c-0.1,1.1-0.1,2.1-0.1,3.2C107.3,43.3,107.3,43.8,107.4,44.4L107.4,44.4z"/>
<path class="st6" d="M122.3,21.9c-2.7-1.8-7.7,2.6-11.3,9.8c-3.5,7.2-4.3,14.5-1.6,16.3c2.7,1.8,7.7-2.6,11.3-9.8
	C124.3,31,125,23.7,122.3,21.9"/>
<path class="st6" d="M75.4,17.9c3-1.2,7,4.2,8.8,12s1,15.1-2,16.3c-3,1.2-6.9-4.2-8.8-12C71.4,26.4,72.4,19.1,75.4,17.9"/>
<path class="st7" d="M85.5,148.3c-0.5-0.4-1-0.8-1.5-1.1c-1.3-0.8-2.6-1.5-4-2.1l-31.2,19.6c0.9,1.7,1.5,3.6,1.7,5.6L85.5,148.3z"/>
<path class="st7" d="M73.9,142.8c-1.2-0.4-2.4-0.9-3.5-1.4l-27.3,17.1c1.7,1.1,3.1,2.4,4.3,4L77,143.9
	C76.1,143.5,75,143.2,73.9,142.8L73.9,142.8z"/>
<path class="st7" d="M93.9,127.6c0.2,0.7,0.4,1.4,0.8,2c0.5,0.8,1,1.5,1.6,2.2l25.7-16.2l3-1.9l8.6-5.4c-0.8-1.1-1.9-2-3.1-2.6
	c-0.6-0.4-1.4-0.5-2.1-0.5c-0.2,0-0.5,0.1-0.7,0.2l-0.1,0.1l-7.1,4.4l-26.8,16.9C93.8,127,93.8,127.3,93.9,127.6L93.9,127.6z"/>
<path class="st8" d="M23.7,179c-0.8-1.3-1.9-2.5-3.2-3.3c-0.2-0.1-0.5-0.3-0.7-0.4c-0.9-0.6-1.9-0.6-2.9-0.2
	c-0.2,0.2-0.4,0.4-0.6,0.6c-0.4,0.6-0.5,1.4-0.5,2.1c0.3,3.7,2.3,7,5.6,8.9c0.6,0.4,1.4,0.5,2.1,0.5c0.3,0,0.5-0.1,0.8-0.2
	c0.8-0.7,1.2-1.7,1.1-2.7c0-0.3,0-0.5-0.1-0.8C25.1,181.8,24.5,180.3,23.7,179z"/>
<path class="st0" d="M128.1,130.2c-0.2-0.4-0.5-0.7-0.7-1.1c-0.3-0.3-0.6-0.7-0.9-1s-0.6-0.5-0.9-0.7l-0.1-0.1
	c-0.3-0.2-0.6-0.3-0.9-0.5c-0.3-0.1-0.6-0.2-0.9-0.3c-0.6-0.1-1.2-0.1-1.7,0c-0.3,0.1-0.6,0.2-0.9,0.3c-0.3,0.1-0.7,0.3-1,0.5
	s-0.6,0.5-0.9,0.7c-0.3,0.3-0.6,0.6-0.9,1c-0.3,0.3-0.5,0.7-0.7,1.1c-0.2,0.3-0.4,0.7-0.5,1.1c-0.1,0.4-0.2,0.7-0.3,1.1
	c0,0.2,0,0.3-0.1,0.5c0,0.2,0,0.4,0,0.6c0,0.3,0.1,0.7,0.2,1s0.2,0.6,0.4,0.8c0.2,0.3,0.4,0.5,0.6,0.7c0.3,0.3,0.6,0.5,0.9,0.7
	c0.4,0.2,0.7,0.4,1.1,0.5h0.1c0.5,0.2,0.9,0.3,1.4,0.3c1,0.2,2.1,0.2,3.1,0c0.5-0.1,0.9-0.2,1.4-0.3c0.4-0.1,0.8-0.3,1.2-0.5
	c0.3-0.2,0.6-0.4,0.9-0.7c0.2-0.2,0.4-0.5,0.6-0.7c0.2-0.3,0.3-0.5,0.4-0.8c0.1-0.3,0.2-0.6,0.2-1s0-0.7-0.1-1
	c-0.1-0.4-0.2-0.7-0.3-1.1C128.5,130.8,128.4,130.5,128.1,130.2L128.1,130.2z"/>
<path class="st9" d="M150.9,98.9c-0.4-0.7-1.2-1.1-2-1.2l-15.5,5.6c3.2,2.3,5.3,5.7,6,9.6l2.3-2.3c2.4-2.4,5.5-5.5,9.4-9.3
	C151.4,100.5,151.3,99.6,150.9,98.9L150.9,98.9z"/>
<path class="st10" d="M40.8,168.2c-0.4-0.6-0.8-1.2-1.3-1.7l-0.1-0.1c-0.2-0.3-0.5-0.5-0.7-0.8c-0.9-0.9-2-1.7-3.2-2.3l-2,1.2
	l-3.3,2.1l-0.2,0.1l-8.7,5.4c4.3,2.4,7.1,6.9,7.4,11.8l12.1-7.6l2-1.2c0-1.5-0.3-3-0.9-4.4C41.7,169.8,41.3,169,40.8,168.2
	L40.8,168.2z"/>
<path class="st9" d="M46,165c-1.3-2.1-3.1-3.8-5.3-4.9l-0.6,0.4l-0.1,0.1l-2,1.3c0.6,0.4,1.1,0.8,1.7,1.2l0.2,0.1
	c3.1,2.7,5.1,6.4,5.6,10.4l2.7-1.7C48,169.4,47.3,167,46,165L46,165z"/>
<path class="st7" d="M127,115.5l-3.2,2l-25.7,16.2l0.7,0.7c1,1,1.9,2.2,2.7,3.5c0,0.1,0.1,0.2,0.1,0.2L113,131
	c0.1-0.3,0.2-0.7,0.3-1c0.2-0.6,0.5-1.1,0.8-1.7c0.3-0.5,0.7-1.1,1.1-1.5c0.4-0.5,0.8-1,1.3-1.4c0.4-0.4,0.9-0.8,1.4-1.2
	c0.5-0.3,1-0.6,1.5-0.8c0.5-0.2,1.1-0.4,1.7-0.5c1.1-0.2,2.3-0.2,3.4,0c0.3,0.1,0.7,0.2,1,0.3l4.3-2.7l5-3.2l0.1-0.1
	c0.1-0.1,0.2-0.1,0.3-0.2c0.5-0.7,0.8-1.6,0.7-2.5c-0.1-1.4-0.4-2.7-1-3.9L127,115.5z"/>
<path class="st2" d="M103.1,91.2L103.1,91.2C103.3,91.2,103.2,91.2,103.1,91.2z"/>
<path class="st2" d="M85.2,84.6c-0.3,0.2-0.5,0.5-0.5,0.8c-0.5,2.5,1.1,4.9,3.6,5.4c1.5,0.3,3-0.1,4.1-1.2c1.2,2,3.6,2.8,5.7,2
	c1.6-0.6,2.7-2.1,2.8-3.8c0.1-0.7-0.5-1.3-1.2-1.4s-1.3,0.5-1.4,1.2s-0.5,1.4-1.2,1.6c-0.3,0.1-0.7,0.2-1.1,0.1
	c-0.2,0-0.3-0.1-0.5-0.2s-0.3-0.2-0.5-0.3c-0.4-0.4-0.7-0.9-0.7-1.4c0-0.2,0-0.4,0.1-0.5c0.5-0.1,0.9-0.3,1.3-0.6
	c0.9-0.5,1.7-1.4,2.1-2.4c0.3-1,0.1-2-0.6-2.8c-1.9-1.8-4.8-2.2-7.2-1.1c-0.9,0.5-1.4,1.5-1.4,2.5c0.1,1.1,0.5,2.1,1.3,2.9
	c0.3,0.4,0.7,0.7,1.1,0.9c-0.1,1.1-1,1.9-2.1,1.9c-1.1-0.1-1.9-1-1.9-2.1c0-0.1,0-0.2,0-0.3c0.1-0.7-0.3-1.4-1-1.5
	C85.9,84.3,85.5,84.3,85.2,84.6L85.2,84.6z"/>
<path class="st11" d="M116.9,120.8c1.7,0.1,3.4,0.8,4.6,2c-0.1,0.1-0.3,0.2-0.4,0.3c-1.5,1-2.8,2.4-3.7,4c-0.4,0.7-0.7,1.6-0.8,2.4
	c-0.4,0.7-0.9,1.3-1.5,1.9l-0.2,0.2c-0.2,0.2-0.4,0.4-0.6,0.6c-0.4,0.4-0.8,0.9-1.2,1.4c-0.3,0.4-0.5,0.7-0.8,1.1
	c-0.6-0.3-1.2-0.7-1.7-1.2c-1.4-1.4-2-3.3-1.6-5.3s1.4-3.9,2.9-5.3C113.4,121.7,115.1,120.9,116.9,120.8"/>
<path class="st11" d="M80.1,152.9l8.2-3.5c-1.2-3.5-7.4-7-18.5-10.4c-0.1-0.7-2,1.1-5.8,5.4C71.9,147.5,77.3,150.4,80.1,152.9"/>
<path class="st4" d="M110.3,137c10,4.2,14.7,15.6,10.5,25.6c-1,2.3-2.3,4.4-4.1,6.2c-3.7,4.2-2,7.2,5,9c2.1,1.4,2.6,4.3,1.2,6.4
	c-1.4,2.1-4.3,2.6-6.4,1.2c-0.4-0.3-0.7-0.6-1-0.9c0.4-3-2.2-6-7.8-9.1c-2.5-0.3-4.5-2.3-4.8-4.8c-0.1-2.5,1.4-4.8,3.7-5.7
	c7.5-3,11.1-11.4,8.2-18.9c-1.4-3.4-4-6.2-7.3-7.8C108.5,135.9,109.5,135.6,110.3,137"/>
<path class="st4" d="M97.3,161c-1,6.5-2.7,12.8-5.3,18.9c3.5,1.4,6.5,4.2,9.2,8.4c-0.8,3.3-4.1,4.1-10.1,2.5
	c0.6-3.3-1.9-5.9-7.7-7.8c-2.7,1.2-5.9,0-7.1-2.7s0-5.9,2.7-7.1c0.8-0.4,1.7-0.5,2.6-0.5c6.4-0.2,11.5-5.5,11.3-11.9
	c-0.1-2.1-0.7-4.1-1.8-5.9C95.5,156.6,97.5,158.6,97.3,161"/>
<path class="st4" d="M91.9,128.3c7.5,9,10.3,15.3,8.4,18.8c-0.7-3.8-3.1-6.7-7.1-8.7c-5.4-2.6-8.2-7-8.4-13.2
	c-0.3-8.5-6.9-15.5-15.4-16.3c-2,0-3.6-1.6-3.6-3.6c0-1.4,0.8-2.6,2-3.2c8.3-1.6,16.8,2.1,21.2,9.4L91.9,128.3"/>
<path class="st4" d="M120.1,137.5c2.9,2,6.9,1.2,8.9-1.8c2-2.9,1.2-6.9-1.8-8.9c-2-1.3-4.6-1.5-6.7-0.3c3,0.3,5.3,2.9,5,5.9
	C125.4,135.3,123,137.5,120.1,137.5"/>
<path class="st2" d="M164.1,88.6c-1.4,0.5-14.4,5.2-36.6,13.2c-0.5,0.1-1,0.3-1.5,0.5c-0.1,0-0.2,0.1-0.2,0.1l-8.7,5.5
	c-0.6-0.9-1.2-1.9-1.9-2.8c-0.7-1-1.4-1.9-2.1-2.9c0.3-0.1,0.5-0.3,0.8-0.4c1-0.5,2-1.1,2.9-1.7s1.8-1.3,2.7-2
	c0.8-0.7,1.6-1.4,2.4-2.2c0.7-0.8,1.5-1.6,2.1-2.4c0.7-0.8,1.3-1.7,1.8-2.6c1.7-2.7,2.8-5.7,3.5-8.8c0.2-1,0.4-2.1,0.5-3.2
	c0.1-1,0.1-2.1,0.1-3.2s-0.1-2.1-0.2-3.2c-0.1-1.1-0.3-2.1-0.5-3.1s-0.5-2.1-0.9-3.1c-0.3-1-0.7-2-1.2-3c-0.4-1-0.9-2-1.5-2.9
	c-0.5-1-1.1-1.9-1.8-2.8c-0.6-0.9-1.3-1.8-2.1-2.7c-0.7-0.8-1.5-1.7-2.3-2.5c-0.4-0.4-0.7-0.7-1.1-1c0.5-0.3,0.9-0.7,1.4-1.1
	c0.9-0.8,1.7-1.6,2.5-2.5c0.9-1,1.7-2,2.4-3.1c1.6-2.3,2.9-4.7,4-7.3l0.1-0.2l0.1-0.1c0.6-1.4,1.1-2.7,1.5-4.1
	c0.4-1.3,0.8-2.7,1-4.1c0.3-1.3,0.4-2.6,0.6-4c0.1-1.2,0.1-2.5,0.1-3.7c-0.1-1.2-0.2-2.4-0.5-3.6c-0.3-1-0.6-2-1.1-3
	c-0.4-0.8-1-1.6-1.7-2.3c-0.6-0.6-1.4-1.1-2.2-1.5h-0.1c-0.8-0.3-1.7-0.5-2.6-0.6s-1.9,0-2.8,0.3c-1,0.3-2,0.7-2.9,1.2
	c-1,0.6-2,1.3-2.9,2.1c-0.9,0.8-1.8,1.6-2.5,2.5c-0.9,1-1.7,2-2.4,3.1c-0.8,1.1-1.5,2.3-2.2,3.4c-0.7,1.2-1.3,2.5-1.9,3.8l-0.1,0.3
	V27c-0.6,1.4-1.1,2.7-1.5,4.1s-0.8,2.7-1.1,4.1c-0.3,1.3-0.4,2.6-0.6,3.9c-0.1,1.2-0.1,2.5-0.1,3.7v0.1c-0.3-0.1-0.5-0.1-0.8-0.2
	c-1.1-0.3-2.2-0.5-3.3-0.6c-1.1-0.2-2.2-0.3-3.3-0.3c-1.1-0.1-2.2-0.1-3.3,0c-0.5,0-1.1,0.1-1.6,0.1c0.2-0.9,0.4-1.8,0.5-2.8
	c0.2-1.3,0.3-2.6,0.3-4s0-2.8-0.1-4.2c-0.1-1.4-0.3-2.8-0.5-4.3v-0.1l-0.1-0.3c-0.3-1.4-0.6-2.8-1-4.1c-0.4-1.3-0.8-2.6-1.3-3.9
	c-0.5-1.2-1-2.4-1.7-3.5c-0.6-1.1-1.2-2.1-1.9-3c-0.7-1-1.5-1.8-2.4-2.6c-0.8-0.7-1.6-1.3-2.5-1.9c-0.8-0.5-1.7-0.8-2.6-0.9
	c-0.9-0.2-1.8-0.2-2.6,0h-0.1c-0.9,0.2-1.7,0.5-2.5,1s-1.5,1.1-2.2,1.9c-0.7,0.8-1.3,1.7-1.8,2.6c-0.5,1.1-1,2.2-1.3,3.4
	s-0.6,2.4-0.8,3.6c-0.2,1.3-0.3,2.6-0.3,4s0,2.8,0.1,4.2s0.3,2.8,0.5,4.3v0.1v0.3l0,0c0.3,1.4,0.6,2.8,1,4.1s0.8,2.6,1.3,3.9
	c0.5,1.2,1,2.4,1.7,3.5c0.6,1.1,1.2,2.1,1.9,3c0.4,0.5,0.8,1,1.2,1.5L73,47.9c-0.9,0.6-1.8,1.3-2.7,2c-0.9,0.7-1.7,1.4-2.5,2.2
	s-1.5,1.6-2.3,2.4c-0.7,0.8-1.4,1.7-2,2.6c-0.6,0.9-1.2,1.8-1.7,2.7s-1,1.9-1.4,2.9s-0.8,2-1.1,3s-0.6,2-0.8,3.1
	c-0.2,1-0.4,2.1-0.4,3.2C58,73.1,58,74.1,58,75.2c0.1,2.1,0.4,4.2,0.9,6.3c0.3,1,0.6,2,1,3s0.8,2,1.3,2.9c0.3,0.6,0.7,1.2,1.1,1.9
	c-2.4,2.4-4.6,4.9-6.7,7.4c-2.6,3.1-4.9,6.4-7.1,9.8c-2.1,3.2-4.1,6.5-5.8,10c-1.7,3.3-3.1,6.7-4.3,10.1c-1,2.8-1.8,5.6-2.4,8.4
	c-9-1-17,5.5-18,14.5c-0.7,6.3,2.4,12.5,7.9,15.8l-10.3,6.5c-0.1,0.1-0.2,0.1-0.3,0.2c-0.2,0.1-0.3,0.2-0.5,0.3
	c-1.8,1.3-2.8,3.4-2.7,5.7c0.3,5,3.1,9.5,7.5,12c1.9,1.1,4.3,1.1,6.3,0c0.1-0.1,0.3-0.2,0.4-0.3c0.1,0,0.3-0.1,0.4-0.2L43.3,179
	c0.8,0.9,1.7,1.7,2.5,2.5c1.3,1.3,2.8,2.4,4.3,3.5c-0.7,2.2-0.5,4.6,0.7,6.6c1.4,2.1,3.7,3.3,6.2,3.2c6.7,0.3,13.3,0.5,20,0.5
	c6.6,0,13.3-0.1,19.9-0.3l0,0c1.7,0,3.3-0.7,4.5-1.9c1-1.1,1.6-2.6,1.5-4.2h2.5c1.7,0,3.4,0,5.1-0.1c1.7,0,3.4-0.1,5.1-0.1
	c1.6,0,3.3-0.1,4.9-0.2l0,0c0.9,0,1.7-0.2,2.5-0.5s1.4-0.8,2-1.4c0.4-0.5,0.8-1,1-1.5c0.3-0.6,0.4-1.2,0.5-1.8s0-1.2-0.1-1.9
	c-0.1-0.6-0.3-1.3-0.6-1.9c-0.6-1.3-1.5-2.4-2.5-3.3c-1.2-1-2.6-1.9-4-2.5h-0.1c-0.5-0.2-1.1-0.4-1.7-0.6c-0.4-0.1-0.8-0.2-1.2-0.4
	c0.5-0.4,0.9-0.9,1.4-1.4c1.6-1.8,3-3.9,4-6.1c3.1-6.9,2.9-14.8-0.6-21.4c-0.5-1-1.1-1.9-1.8-2.8c0.4,0.1,0.9,0.2,1.3,0.3
	c1.5,0.2,2.9,0.2,4.4,0c0.7-0.1,1.4-0.3,2.1-0.5s1.3-0.5,1.9-0.9c0.6-0.3,1.1-0.7,1.6-1.2c0.5-0.4,0.9-0.9,1.2-1.5
	c0.3-0.5,0.6-1.1,0.8-1.7c0.2-0.6,0.3-1.2,0.3-1.9c0-0.6,0-1.3-0.1-1.9c-0.1-0.6-0.3-1.2-0.5-1.7c-0.2-0.6-0.5-1.1-0.8-1.7
	c-0.3-0.5-0.7-1-1.1-1.5c-0.4-0.5-0.8-1-1.3-1.4c-0.1-0.1-0.2-0.2-0.3-0.2l8-5.1c0.1-0.1,0.2-0.2,0.3-0.3c0.2-0.2,0.5-0.4,0.7-0.6
	c1.2-1,3.1-2.9,6.2-6.1c4.3-4.3,11.1-11.1,21.9-21.6c0.7-0.7,0.7-1.8,0-2.5c-0.5-0.5-1.3-0.7-1.9-0.4L164.1,88.6z M120.5,109.8
	l7.1-4.4l0.1-0.1c0.2-0.1,0.5-0.2,0.7-0.2c0.7,0,1.4,0.2,2.1,0.5c1.2,0.6,2.3,1.5,3.1,2.6l-8.6,5.4l-3,1.9l-25.7,16.2
	c-0.6-0.7-1.1-1.4-1.6-2.2c-0.4-0.6-0.6-1.3-0.8-2c-0.1-0.3-0.1-0.6-0.2-0.9L120.5,109.8z M113.4,110.2l-19.9,12.5
	c0-0.7-0.1-1.3-0.2-1.9c-0.1-1.3-0.4-2.7-0.7-4c-0.6-2.8-1.6-5.4-3.1-7.9c-0.8-1.4-1.8-2.7-2.9-3.8c1,0.2,2,0.4,3.1,0.6
	c1.2,0.2,2.5,0.3,3.6,0.4c1.2,0.1,2.4,0.1,3.6,0.1s2.4-0.1,3.6-0.2s2.3-0.3,3.5-0.5s2.3-0.5,3.4-0.9c0.5-0.1,0.9-0.3,1.4-0.5
	l0.5,0.6c0.4,0.5,0.8,1,1.1,1.5c0.4,0.5,0.7,1,1.1,1.5s0.7,1,1.1,1.6C113,109.5,113.2,109.9,113.4,110.2L113.4,110.2z M107.2,39.4
	c0.1-1.2,0.3-2.3,0.5-3.5s0.6-2.4,0.9-3.6c0.4-1.2,0.8-2.4,1.3-3.6l0.1-0.3v-0.1c0.5-1.2,1.1-2.3,1.7-3.4s1.2-2.1,1.9-3.1
	c0.6-0.9,1.3-1.8,2.1-2.7c0.7-0.8,1.4-1.5,2.2-2.2c0.6-0.5,1.2-1,1.9-1.4c0.6-0.4,1.2-0.7,1.8-0.9c0.5-0.2,1-0.3,1.6-0.3
	c0.5,0,0.9,0.1,1.3,0.2h0.1c0.4,0.2,0.8,0.5,1.1,0.8c0.4,0.4,0.7,0.9,0.9,1.4c0.3,0.6,0.5,1.3,0.6,2c0.2,0.8,0.3,1.6,0.3,2.5
	c0.1,1.1,0,2.1-0.1,3.2c-0.1,1.2-0.3,2.3-0.5,3.5s-0.6,2.4-0.9,3.6c-0.4,1.2-0.8,2.4-1.3,3.6l-0.1,0.3c-0.5,1.2-1.1,2.3-1.7,3.4
	c-0.6,1.1-1.2,2.1-1.9,3.1c-0.6,0.9-1.3,1.8-2.1,2.7c-0.7,0.8-1.4,1.5-2.1,2.2c-0.6,0.5-1.2,1-1.9,1.4l-0.2,0.1
	c-0.2-0.1-0.4-0.3-0.6-0.4c-0.9-0.6-1.9-1.2-2.8-1.8c-1-0.5-2-1-3-1.5c-0.3-0.1-0.7-0.3-1-0.4c-0.1-0.6-0.2-1.2-0.2-1.8
	C107.1,41.5,107.1,40.5,107.2,39.4L107.2,39.4z M72.7,37.9c-0.5-1.1-0.8-2.3-1.2-3.4c-0.3-1.2-0.6-2.4-0.9-3.7l0,0l-0.1-0.4
	c-0.2-1.3-0.4-2.6-0.5-3.8c-0.1-1.2-0.1-2.5-0.1-3.7s0.1-2.3,0.3-3.5c0.1-1.1,0.3-2.1,0.6-3.1c0.2-0.8,0.5-1.6,0.8-2.3
	s0.7-1.3,1.1-1.8c0.3-0.4,0.7-0.8,1.2-1.2c0.4-0.3,0.8-0.5,1.2-0.6h0.1c0.5-0.1,0.9,0,1.4,0.1s1,0.3,1.5,0.6
	c0.6,0.4,1.1,0.8,1.6,1.2c0.6,0.6,1.1,1.2,1.6,1.8c0.6,0.8,1.2,1.7,1.7,2.6c0.5,1,1,2,1.4,3.1c0.5,1.1,0.8,2.3,1.2,3.4
	c0.3,1.2,0.6,2.4,0.9,3.7V27l0.1,0.3c0.2,1.3,0.4,2.6,0.5,3.8c0.1,1.2,0.1,2.5,0.1,3.7s-0.1,2.3-0.3,3.5c-0.1,1.1-0.3,2.1-0.6,3.1
	c-0.1,0.4-0.2,0.7-0.3,1l-0.3,0.1c-1.1,0.2-2.2,0.5-3.2,0.9c-1.1,0.3-2.1,0.7-3.1,1.2c-0.6,0.3-1.2,0.5-1.8,0.8l-0.1-0.1
	c-0.6-0.6-1.1-1.2-1.6-1.8c-0.6-0.8-1.2-1.7-1.7-2.6C73.6,40,73.1,39,72.7,37.9L72.7,37.9z M62.7,74.9c0-0.9,0-1.8,0.1-2.7
	c0.1-0.9,0.2-1.8,0.4-2.7c0.2-0.9,0.4-1.8,0.7-2.6c0.3-0.9,0.6-1.7,0.9-2.6c0.4-0.8,0.8-1.7,1.2-2.5c0.9-1.6,2-3.2,3.2-4.6
	c0.6-0.7,1.3-1.4,2-2.1c0.7-0.7,1.4-1.3,2.2-1.9c0.8-0.6,1.6-1.2,2.4-1.7c0.4-0.3,0.9-0.6,1.4-0.9c0.5-0.2,0.8-0.4,1.2-0.7
	c0.9-0.5,1.8-0.9,2.7-1.3c0.9-0.4,1.8-0.7,2.8-1c0.9-0.3,1.9-0.6,2.8-0.8c0.8-0.2,1.6-0.3,2.3-0.4l0.6-0.1c1-0.1,1.9-0.2,2.9-0.3
	c1,0,2,0,2.9,0c1,0,1.9,0.1,2.9,0.3c1,0.1,1.9,0.3,2.9,0.5c0.9,0.2,1.8,0.5,2.7,0.8h0.1c0.9,0.3,1.8,0.7,2.7,1.1
	c0.9,0.4,1.8,0.8,2.6,1.3c0.9,0.5,1.7,1,2.5,1.6s1.6,1.1,2.3,1.8c0.8,0.6,1.5,1.3,2.2,2s1.4,1.4,2,2.2s1.2,1.5,1.8,2.4
	c0.6,0.8,1.1,1.6,1.6,2.5c0.5,0.8,0.9,1.7,1.3,2.6s0.7,1.8,1,2.7c0.3,0.9,0.5,1.8,0.8,2.7c0.2,0.9,0.4,1.8,0.5,2.7
	c0.1,0.9,0.2,1.8,0.2,2.7c0,0.9,0,1.8-0.1,2.7c-0.1,0.9-0.2,1.8-0.4,2.7c-0.2,0.9-0.4,1.8-0.7,2.6c-0.6,1.7-1.3,3.4-2.2,4.9
	c-0.5,0.8-1,1.5-1.5,2.2c-0.6,0.7-1.2,1.4-1.8,2.1c-0.6,0.7-1.3,1.3-2.1,1.9c-0.7,0.6-1.5,1.2-2.3,1.7s-1.7,1-2.5,1.5
	c-0.5,0.3-1,0.5-1.5,0.7s-0.8,0.4-1.2,0.5c-0.9,0.4-1.9,0.7-2.9,1h-0.2c-0.9,0.3-1.9,0.5-2.8,0.7c-1,0.2-2.1,0.4-3.1,0.5
	c-1.1,0.1-2.1,0.2-3.2,0.2s-2.2,0-3.3-0.1s-2.2-0.2-3.3-0.3c-1.1-0.2-2.2-0.4-3.2-0.6c-1.1-0.3-2.1-0.5-3.1-0.9c-1-0.3-2-0.7-3-1.1
	s-2-0.9-2.9-1.4s-1.9-1-2.7-1.6S73.8,94.6,73,94c-0.8-0.6-1.5-1.3-2.3-2c-0.7-0.7-1.4-1.4-2-2.2c-0.2-0.2-0.4-0.5-0.6-0.8l-0.2,0
	c-0.3-0.4-0.7-0.9-1-1.3c-0.2-0.3-0.3-0.5-0.5-0.8l-0.1-0.2c-0.3-0.5-0.6-1-0.8-1.4c-0.4-0.8-0.8-1.6-1.2-2.5
	c-0.3-0.8-0.6-1.7-0.9-2.6C63,78.5,62.8,76.7,62.7,74.9L62.7,74.9z M39,144.4c0.2-2.8,0.6-5.6,1.2-8.3c0.6-2.9,1.4-5.7,2.4-8.4
	c1.2-3.3,2.5-6.5,4.1-9.7c1.7-3.3,3.5-6.5,5.6-9.6c2.1-3.2,4.5-6.3,6.9-9.3c1.9-2.2,3.8-4.4,5.9-6.6l0.2,0.2
	c0.7,0.9,1.5,1.7,2.3,2.5s1.7,1.5,2.6,2.2c0.8,0.6,1.6,1.2,2.5,1.8H72c-1.6,0-3.2,0.2-4.8,0.6c-1,0.2-1.7,1.2-1.4,2.3
	c0.2,1,1.2,1.7,2.3,1.4c0.7-0.2,1.3-0.3,2-0.4s1.3-0.1,2-0.1c1.9,0,3.7,0.2,5.5,0.8c1.7,0.5,3.3,1.3,4.7,2.4
	c1.7,1.3,3.1,2.9,4.2,4.8c1.2,2.1,2.1,4.3,2.6,6.7c0.3,1.2,0.5,2.4,0.6,3.6s0.2,2.6,0.2,4v0.1c0,1.1,0.2,2.2,0.5,3.3
	c0.3,1,0.7,1.9,1.2,2.8c0.6,0.9,1.2,1.8,1.9,2.6c0.8,0.9,1.7,1.9,2.9,3c0.8,0.8,1.5,1.7,2.1,2.7s1,2,1.2,3.1
	c0.3,1.2,0.4,2.4,0.4,3.6c0,1.3-0.2,2.7-0.4,4c-0.2,0.7-0.4,1.5-0.8,2.2c-0.3,0.6-0.7,1.1-1.1,1.5c-0.2,0.2-0.5,0.3-0.7,0.5
	c-0.2,0.1-0.5,0.2-0.8,0.2s-0.6,0-0.8-0.1c-0.3-0.1-0.6-0.2-0.8-0.4c-0.6-0.4-1-0.8-1.4-1.4c-0.5-0.7-0.8-1.4-1.1-2.1v-0.1
	c-0.5-1.3-1.2-2.4-2.1-3.4c-1.1-1.2-2.3-2.2-3.6-3.1c-1.5-1-3.1-1.9-4.8-2.6c-2-0.9-4.1-1.6-6.2-2.3l0,0c-1.6-0.5-3.2-1.2-4.6-2.1
	c-1.4-0.8-2.8-1.8-4-2.9c-1.2-1.1-2.2-2.3-3.1-3.6s-1.6-2.7-2.1-4.2c-0.2-0.6-0.4-1.2-0.6-1.9c-0.2-0.6-0.3-1.3-0.4-1.9
	c-0.1-0.6-0.2-1.3-0.2-1.9c0-0.4,0-0.8,0-1.2V119c0-1-0.8-1.9-1.9-1.9c-1,0-1.9,0.8-1.9,1.9c0,0.8,0,1.5,0.1,2.3
	c0,0.8,0.1,1.5,0.3,2.3c0.1,0.8,0.3,1.5,0.5,2.2s0.4,1.5,0.7,2.2c0.6,1.8,1.5,3.4,2.5,5c1.1,1.6,2.3,3,3.7,4.3c1,0.9,2,1.7,3.1,2.5
	l-27.5,17.3c-0.2-1.4-0.4-2.8-0.5-4.2C38.8,149.9,38.8,147.1,39,144.4L39,144.4z M80,145.1c1.4,0.6,2.7,1.3,4,2.1
	c0.5,0.3,1,0.7,1.5,1.1l-34.9,22c-0.2-1.9-0.8-3.8-1.7-5.6L80,145.1z M47.4,162.5c-1.2-1.6-2.6-2.9-4.3-4l27.2-17.2
	c1.1,0.6,2.3,1,3.5,1.4l0,0c1.1,0.3,2.1,0.7,3.1,1.1L47.4,162.5z M23.9,156.6c-3.1-5.9-0.8-13.1,5-16.2c2-1,4.3-1.5,6.5-1.3
	c-0.3,1.8-0.5,3.6-0.6,5.3c-0.2,2.9-0.2,5.8,0,8.7c0.2,2,0.4,3.9,0.8,5.8l-5.2,3.3c-0.3-0.1-0.5-0.2-0.8-0.3
	C27.2,161,25.2,159,23.9,156.6L23.9,156.6z M24.3,186.9c-0.2,0.1-0.5,0.2-0.8,0.3c-0.7,0-1.5-0.1-2.1-0.5c-3.2-1.8-5.3-5.2-5.6-8.9
	c0-0.7,0.1-1.5,0.5-2.1c0.1-0.2,0.3-0.5,0.6-0.6c0.9-0.4,2-0.3,2.9,0.2c0.2,0.1,0.5,0.3,0.7,0.4c2.6,1.8,4.3,4.5,4.8,7.6
	c0,0.3,0.1,0.5,0.1,0.8C25.5,185.2,25.1,186.2,24.3,186.9L24.3,186.9z M40.9,176.4L28.8,184c-0.3-4.9-3.1-9.4-7.4-11.8l8.7-5.4
	l0.2-0.1l3.3-2.1l2-1.2c1.2,0.6,2.3,1.4,3.2,2.3c0.3,0.2,0.5,0.5,0.7,0.8l0.1,0.1c1.1,1.2,1.9,2.6,2.5,4.2c0.6,1.4,0.8,2.9,0.9,4.4
	L40.9,176.4z M45.4,173.6c-0.5-4.1-2.5-7.8-5.6-10.4l-0.2-0.1c-0.5-0.4-1.1-0.9-1.7-1.2l2-1.3l0.1-0.1l0.6-0.4
	c4.4,2.3,7.3,6.8,7.4,11.8L45.4,173.6z M96.7,190.5c-3.1,0.1-6.4,0.2-9.7,0.3c-9.9,0.2-19.9,0-29.8-0.4H57c-1.4,0.2-2.7-0.9-2.9-2.3
	c0-0.1,0-0.2,0-0.4c0-1,0.3-1.9,0.8-2.8c0.5-1.1,0.1-2.4-1-3c-0.1-0.1-0.2-0.1-0.3-0.1c-1.4-0.6-2.7-1.5-3.8-2.6
	c-0.8-0.7-1.7-1.6-2.6-2.5L87.8,151c0.2,0.3,0.3,0.6,0.5,1v0.1c0.4,1.1,1,2.2,1.7,3.2c0.6,0.9,1.4,1.6,2.3,2.2
	c0.6,0.4,1.2,0.6,1.8,0.8c3.1,8.8-1.5,18.5-10.3,21.7c-0.8,0.3-1.7,0.5-2.5,0.7c-1.1,0.2-1.9,1.2-1.7,2.4c0.2,1.1,1.2,1.9,2.4,1.7
	c0.1,0,0.1,0,0.2,0c2.1-0.4,4.1-1.1,5.9-2.1c0.9,0.2,1.9,0.4,2.8,0.7c1.1,0.3,2.1,0.7,3.2,1.1c0.9,0.4,1.8,0.9,2.6,1.6
	c0.9,0.7,1.5,1.6,1.8,2.7C98.7,189.8,97.9,190.5,96.7,190.5L96.7,190.5z M119.5,157.6c-0.2,2-0.8,3.9-1.6,5.8
	c-0.8,1.8-1.9,3.5-3.3,4.9c-1.3,1.5-2.9,2.7-4.6,3.7s-3.5,1.6-5.4,2c-0.6,0.1-1.1,0.4-1.4,0.9s-0.4,1.1-0.3,1.7
	c0.1,0.6,0.4,1.1,0.9,1.4c0.5,0.3,1,0.5,1.6,0.4l0,0c2.2-0.4,4.3-1.2,6.2-2.2c0.4,0.1,0.8,0.2,1.2,0.3c0.5,0.1,1.1,0.3,1.7,0.4
	s1.1,0.3,1.6,0.5s1.1,0.4,1.5,0.6c0.9,0.4,1.8,0.9,2.6,1.6c0.7,0.5,1.2,1.2,1.5,2c0.1,0.2,0.2,0.5,0.2,0.7s0.1,0.4,0,0.7
	c0,0.1-0.1,0.3-0.1,0.4c-0.1,0.1-0.1,0.2-0.2,0.3c-0.2,0.2-0.4,0.3-0.6,0.4c-0.3,0.1-0.6,0.1-0.9,0.2c-1.6,0.1-3.2,0.1-4.9,0.2
	c-1.6,0-3.3,0.1-4.9,0.1c-1.7,0-3.4,0-5.1,0.1h-4.1c-1.5-1.9-3.4-3.3-5.6-4.2h-0.1c-0.9-0.4-1.9-0.7-2.9-1c0.3-0.3,0.5-0.5,0.8-0.8
	c5.1-5.5,7-13.3,4.9-20.5c0.6-0.3,1.1-0.6,1.6-1c0.8-0.7,1.5-1.5,2-2.4c0.6-1,1-2.2,1.2-3.3l0,0c0.3-1.6,0.5-3.2,0.5-4.8
	c0-1.5-0.2-3-0.5-4.4c0-0.2-0.1-0.3-0.1-0.5l6-3.7l0.1,0.1c1.8,0.9,3.4,2,4.8,3.4s2.6,3,3.5,4.8s1.6,3.7,1.9,5.7
	C119.7,153.5,119.8,155.5,119.5,157.6L119.5,157.6z M129,132.4c0.1,0.3,0.1,0.7,0.1,1s-0.1,0.7-0.2,1c-0.1,0.3-0.2,0.6-0.4,0.8
	c-0.2,0.3-0.4,0.5-0.6,0.7c-0.3,0.3-0.6,0.5-0.9,0.7c-0.4,0.2-0.8,0.4-1.2,0.5c-0.5,0.2-0.9,0.3-1.4,0.3c-1,0.2-2.1,0.2-3.1,0
	c-0.5-0.1-0.9-0.2-1.4-0.3h-0.1c-0.4-0.1-0.8-0.3-1.1-0.5c-0.3-0.2-0.6-0.4-0.9-0.7c-0.2-0.2-0.4-0.5-0.6-0.7
	c-0.2-0.3-0.3-0.5-0.4-0.8s-0.2-0.6-0.2-1c0-0.2,0-0.4,0-0.6c0-0.2,0-0.3,0.1-0.5c0.1-0.4,0.2-0.7,0.3-1.1c0.1-0.4,0.3-0.7,0.5-1.1
	c0.2-0.4,0.5-0.7,0.7-1.1c0.3-0.3,0.6-0.7,0.9-1s0.6-0.5,0.9-0.7s0.6-0.4,1-0.5c0.3-0.1,0.6-0.2,0.9-0.3c0.6-0.1,1.2-0.1,1.7,0
	c0.3,0.1,0.6,0.2,0.9,0.3c0.3,0.1,0.6,0.3,0.9,0.5l0.1,0.1c0.3,0.2,0.6,0.5,0.9,0.7c0.3,0.3,0.6,0.6,0.9,1c0.3,0.3,0.5,0.7,0.7,1.1
	c0.2,0.3,0.4,0.7,0.5,1.1C128.8,131.7,128.9,132,129,132.4L129,132.4z M135.3,116.9c-0.1,0.1-0.2,0.2-0.3,0.2l-0.1,0.1l-5,3.2
	l-4.3,2.7c-0.3-0.1-0.7-0.2-1-0.3c-1.1-0.2-2.3-0.2-3.4,0c-0.6,0.1-1.1,0.3-1.7,0.5s-1.1,0.5-1.6,0.8s-1,0.7-1.4,1.1
	c-0.5,0.4-0.9,0.9-1.3,1.4s-0.7,1-1.1,1.5c-0.3,0.5-0.6,1.1-0.8,1.7c-0.1,0.3-0.2,0.7-0.3,1l-11.3,7.1c0-0.1-0.1-0.2-0.1-0.2
	c-0.7-1.3-1.6-2.5-2.7-3.5l-0.7-0.7l25.7-16.2l3.2-2l8-5c0.6,1.2,1,2.6,1,3.9C136.1,115.3,135.8,116.2,135.3,116.9L135.3,116.9z
	 M151.1,101.3c-3.9,3.8-7,6.9-9.4,9.3l-2.3,2.3c-0.7-3.9-2.8-7.3-6-9.6l15.5-5.6c1.4,0.1,2.5,1.3,2.4,2.7
	C151.3,100.7,151.2,101,151.1,101.3L151.1,101.3z"/>
<g>
	<path d="M190.5,181.7c-7-7.5-13.9-15.1-21.1-22.8c-0.1,0.6-0.1,0.9-0.1,1.3c0,5.7,0,11.4,0,17c0,1.5,0,1.5-1.5,1.5
		c-7.3,0-14.6,0-21.9,0c-1.2,0-1.3-0.1-1.3-1.2c0-17.8,0-35.7,0-53.5c0-0.3,0-0.6,0-1.2c7.4,8,14.5,15.7,21.9,23.7
		c0.1-0.6,0.1-1,0.1-1.3c0-5.7,0-11.5,0-17.2c0-1.6,0-1.6,1.6-1.6c7,0,14.1,0,21.1,0c1.3,0,1.4,0,1.4,1.4c0,17.6,0,35.2,0,52.8
		c0,0.4,0,0.8,0,1.2C190.7,181.7,190.6,181.7,190.5,181.7z"/>
	<path d="M242.4,145.1c4,0,7.9,0,11.9,0c1.1,0,1.2,0.1,1.2,1.2c0,2.1-0.1,4.3,0,6.4c0.3,5.5-1.5,10.5-4.5,15
		c-3.6,5.5-8.2,9.9-14.8,11.6c-15,4-28.3-4.1-32.8-16.9c-6.9-19.4,6.6-35.4,22.1-37.5c0.9-0.1,1.8-0.1,2.6-0.2c0.8-0.1,1,0.3,1,1
		c0,1.9,0,3.8,0,5.8c0,4.2,0,8.3,0,12.5c0,0.8-0.2,1.2-1.1,1.2c-3.8,0.2-6.8,3.7-6.8,7.7c0,3.8,2.6,6.8,6.4,7.6
		c1.2,0.2,1.5,0,1.5-1.2c0-4,0-7.9,0-11.9c0-2.5-0.2-2.3,2.3-2.3C235.2,145.1,238.8,145.1,242.4,145.1z"/>
	<path d="M284.4,126.4c7,0,14.1,0,21.1,0c1.3,0,1.4,0.1,1.4,1.4c0,3.1,0,6.2,0,9.3c0,1.1-0.1,1.2-1.2,1.2c-3.1,0-6.1,0-9.2-0.1
		c-1.5,0-1.6,0.1-1.6,1.6c0,12.4,0,24.8,0,37.2c0,1.8,0,1.8-1.8,1.8c-5.8,0-11.7,0-17.5,0c-1.5,0-1.5,0-1.5-1.5c0-12.3,0-24.7,0-37
		c0-0.3,0-0.6,0-0.9c0-1-0.2-1.2-1.3-1.2c-3.1,0-6.3,0-9.4,0c-1.3,0-1.3,0-1.3-1.3c0-3.1,0-6.1,0-9.2c0-1.3,0-1.4,1.3-1.4
		C270.4,126.4,277.4,126.4,284.4,126.4z"/>
	<path d="M151.4,194.8c-1.2,0.4-2-0.1-2.5-1.2c-0.8-1.4-1.7-2.7-2.7-4.3c0,2,0,3.7,0,5.5c-0.6,0-1.1,0-1.6,0c0-2.9,0-5.8,0-8.6
		c1.6-0.2,1.6-0.2,2.4,1.1c0.9,1.4,1.8,2.9,2.8,4.3c0-1.8,0-3.6,0-5.4c0.6,0,1.1,0,1.6,0C151.4,189.1,151.4,191.9,151.4,194.8z"/>
	<path d="M237.7,189.6c0,1.7,0,3.5,0,5.2c-0.6,0-1,0-1.6,0c0-2.9,0-5.7,0-8.6c1.4-0.4,1.6-0.3,2.3,0.9c0.9,1.5,1.8,2.9,2.7,4.3
		c0,0,0.1,0.1,0.2,0.1c0-1.8,0-3.6,0-5.4c0.6,0,1.1,0,1.6,0c0,2.9,0,5.8,0,8.6c-1.1,0.3-1.9,0.1-2.5-1c-0.8-1.5-1.7-2.8-2.6-4.2
		C237.8,189.6,237.8,189.6,237.7,189.6z"/>
	<path d="M215.4,188.5c-0.5,0.1-1.1,0.2-1.7,0.4c-0.4-1-1.1-1.6-2.3-1.4c-1,0.1-1.8,0.6-2.1,1.5c-0.4,1.4-0.5,2.8,0.6,4
		c0.7,0.8,1.6,0.9,2.6,0.6c0.8-0.3,1.5-0.7,1-1.8c-0.5,0-1.2,0-1.9,0c0-0.5,0-1,0-1.5c1.2,0,2.4,0,3.8,0c0,1.1,0,2.2,0,3.3
		c0,0.2-0.3,0.5-0.5,0.6c-1.2,0.8-2.6,1.1-4,0.9c-1.8-0.2-3-1.2-3.5-3c-0.5-1.9-0.3-3.8,1.3-5.1c1.5-1.3,3.2-1.2,4.9-0.6
		C214.6,186.7,215.2,187.4,215.4,188.5z"/>
	<path d="M160.6,187.6c0,0.7,0,1.3,0,2c1.4,0,2.8,0,4.3,0c0,0.5,0,1,0,1.5c-1.4,0-2.8,0-4.3,0c0,0.8,0,1.6,0,2.4c1.6,0,3.2,0,4.8,0
		c0,0.5,0,0.9,0,1.4c-2.2,0-4.3,0-6.6,0c0-2.9,0-5.7,0-8.7c2.1,0,4.2,0,6.4,0c0,0.4,0,0.9,0,1.4
		C163.7,187.6,162.2,187.6,160.6,187.6z"/>
	<path d="M222.5,186.2c2.2,0,4.3,0,6.4,0c0,0.5,0,0.9,0,1.4c-1.5,0-3,0-4.6,0c0,0.7,0,1.3,0,2c1.4,0,2.8,0,4.3,0c0,0.5,0,0.9,0,1.5
		c-1.4,0-2.8,0-4.3,0c0,0.8,0,1.6,0,2.4c1.6,0,3.1,0,4.8,0c0,0.5,0,1,0,1.5c-2.2,0-4.3,0-6.5,0C222.5,192,222.5,189.1,222.5,186.2z"
		/>
	<path d="M278.5,186.2c0,0.5,0,0.9,0,1.4c-1.5,0-3.1,0-4.6,0c0,0.7,0,1.3,0,2c1.4,0,2.8,0,4.3,0c0,0.5,0,0.9,0,1.5
		c-1.4,0-2.8,0-4.3,0c0,0.8,0,1.6,0,2.4c1.6,0,3.1,0,4.8,0c0,0.5,0,1,0,1.5c-2.2,0-4.3,0-6.5,0c0-2.9,0-5.8,0-8.7
		C274.2,186.2,276.3,186.2,278.5,186.2z"/>
	<path d="M304.9,186.2c0.7,0,1.2,0,1.7,0c0,2.9,0,5.8,0,8.7c-0.5,0-1,0-1.7,0c0-1.3,0-2.5,0-3.7c-1.2,0-2.3,0-3.5,0
		c0,1.3,0,2.5,0,3.7c-0.6,0-1.1,0-1.7,0c0-2.9,0-5.8,0-8.7c0.6,0,1.1,0,1.7,0c0,1.1,0,2.2,0,3.4c1.2,0,2.3,0,3.5,0
		C304.9,188.5,304.9,187.3,304.9,186.2z"/>
	<path d="M171.8,186.3c2.4-0.9,2.7,1.3,3.7,2.4c0.3-0.4,0.6-0.8,0.8-1.2c0.6-1.2,1.5-1.7,2.9-1.3c-0.7,1-1.3,2.1-2.1,3.1
		c-0.5,0.7-0.5,1.2,0,1.9c0.8,1.1,1.6,2.3,2.3,3.5c-1.8,0.4-1.9,0.3-2.9-1.1c-0.3-0.5-0.7-1.1-1.1-1.7c-0.4,0.6-0.9,1.1-1.1,1.7
		c-0.6,1.3-1.6,1.5-2.9,1.2c0.8-1.2,1.6-2.5,2.4-3.7c0.5-0.6,0.4-1.1,0-1.7C173.2,188.4,172.6,187.4,171.8,186.3z"/>
	<path d="M292.7,188.5c-0.6,0.1-1.1,0.2-1.6,0.4c-0.2-0.3-0.3-0.6-0.5-0.8c-1-1.1-3-0.7-3.4,0.8c-0.2,1-0.2,2.1-0.1,3.1
		c0.1,0.9,0.9,1.5,1.8,1.6c0.9,0.1,1.6-0.4,2-1.3c0.1-0.1,0.1-0.3,0.2-0.5c0.6,0.2,1.1,0.4,1.6,0.5c-0.6,2-2.2,3-4.2,2.7
		c-2.1-0.3-3.4-2-3.4-4.3c0-2.6,1.3-4.3,3.5-4.6C290.5,185.7,292.1,186.6,292.7,188.5z"/>
	<path d="M188,187.6c-1,0-1.7,0-2.6,0c0-0.5,0-0.9,0-1.4c2.3,0,4.5,0,6.9,0c0,0.5,0,0.9,0,1.4c-0.8,0-1.6,0-2.5,0c0,2.5,0,4.8,0,7.3
		c-0.6,0-1.1,0-1.8,0C188,192.5,188,190.1,188,187.6z"/>
	<path d="M265.3,186.2c0,0.5,0,0.9,0,1.4c-0.8,0-1.6,0-2.5,0c0,2.5,0,4.9,0,7.3c-0.6,0-1.2,0-1.8,0c0-2.4,0-4.8,0-7.2
		c-0.9,0-1.7,0-2.5,0c0-0.5,0-0.9,0-1.4C260.7,186.2,262.9,186.2,265.3,186.2z"/>
</g>
</svg>
