<?xml version="1.0" encoding="utf-8"?>
<!-- Generator: Adobe Illustrator 25.2.0, SVG Export Plug-In . SVG Version: 6.00 Build 0)  -->
<svg version="1.1" id="Layer_1" xmlns="http://www.w3.org/2000/svg" xmlns:xlink="http://www.w3.org/1999/xlink" x="0px" y="0px"
	 viewBox="0 0 888.1 162.1" style="enable-background:new 0 0 888.1 162.1;" xml:space="preserve">
<style type="text/css">
	.st0{fill:#FFFFFF;}
</style>
<g>
	<path class="st0" d="M5.1,28.9l-0.6-0.6v-3l0.6-0.6l19.9-3.3c1.4,1,2.8,2.2,4.1,3.7c1.3,1.5,3.3,4.3,5.9,8.4
		c2.6,4.1,5.9,9.8,9.9,17.2c4,7.4,7.9,14.7,11.6,22.1l7.2-11.4l8.1-13.5l14.9-25.6c1.8,0.2,3.6,0.3,5.4,0.3c1.1,0,2.7-0.1,4.9-0.3
		l0.6,0.6v1.3c-2.4,2.6-6,7.3-10.9,14.1c-4.9,6.8-8.6,12.1-11,15.9c-2.4,3.8-5.4,8.6-8.9,14.5c-3.5,5.8-5.5,9.3-5.8,10.5
		c-0.3,1.2-0.5,2.6-0.5,4.2v10.4l0.1,10.6c0,4.1,0.2,6.9,0.5,8.6c0.3,1.6,0.6,2.7,1.1,3.2c0.4,0.5,1.3,0.9,2.5,1.2
		c1.2,0.3,4.4,0.6,9.3,0.8l0.6,0.4v3.5l-0.6,0.6c-0.2,0-4.4-0.1-12.4-0.4c-3.3-0.1-5.9-0.1-7.8-0.1c-1.5,0-8.2,0.2-20.2,0.6
		l-0.6-0.6v-3.5l0.6-0.4c4.5-0.2,7.4-0.4,8.8-0.7s2.4-0.6,2.9-1.1c0.5-0.4,0.9-1.3,1.2-2.6c0.3-1.3,0.4-3.9,0.5-7.9l0.1-12.1V80.2
		c-1-2.5-4.5-8.6-10.4-18.3l-6.2-10.1c-2-3.2-4.5-6.9-7.4-11.2c-3-4.3-5.3-7.1-6.9-8.7c-1.6-1.5-2.9-2.4-3.8-2.7
		C11.4,29.1,9,28.9,5.1,28.9z"/>
	<path class="st0" d="M103.7,73.3c0-7,1-13.6,3-19.7c2-6.1,5.5-11.8,10.3-17c4.9-5.2,10.7-9.2,17.6-12.1c6.9-2.8,14.6-4.3,23.3-4.3
		c16,0,28.8,4.4,38.3,13.1c9.5,8.7,14.2,20.6,14.2,35.7c0,10.6-2.3,20.2-7,28.6s-11.3,15-20,19.7c-8.7,4.7-18.4,7-29.2,7
		c-7.7,0-14.7-1.3-21.1-3.8c-6.4-2.6-11.9-6.4-16.5-11.5c-4.5-5.1-7.8-10.9-9.9-17.6C104.8,84.9,103.7,78.8,103.7,73.3z M118.4,68.7
		c0,5.7,0.9,11.9,2.8,18.5c1.9,6.6,4.6,12.3,8.3,17c3.7,4.7,7.9,8.2,12.8,10.5c4.8,2.3,10.3,3.5,16.5,3.5c7.3,0,13.8-1.7,19.5-5
		c5.7-3.3,10-8.5,13-15.5c3-7,4.4-14.9,4.4-23.6c0-9.5-1.7-18.1-5.1-25.7c-3.4-7.7-8.2-13.2-14.5-16.7c-6.3-3.5-13.2-5.2-20.8-5.2
		c-11.4,0-20.4,3.6-27,10.7C121.7,44.2,118.4,54.7,118.4,68.7z"/>
	<path class="st0" d="M216,22.8l0.6-0.5c11.7,0.4,18.4,0.6,20.2,0.6c1.6,0,8.3-0.2,20.2-0.6l0.6,0.5v3.5l-0.6,0.5
		c-3.2,0.1-5.7,0.2-7.5,0.4c-1.8,0.2-3,0.5-3.8,1.1c-0.8,0.5-1.3,1.7-1.6,3.6c-0.3,1.9-0.4,4.5-0.4,7.9l-0.1,16.2v22.4
		c0,7.4,0.2,12.8,0.5,16.2c0.3,3.5,1,6.4,2,8.7c1,2.4,2.5,4.4,4.6,6.1c2.1,1.7,5,3.1,8.9,4.2c3.9,1.1,8.2,1.6,13.1,1.6
		c5.2,0,10-0.7,14.5-2.1c4.5-1.4,7.9-3.5,10.3-6.2c2.3-2.7,3.9-6.3,4.6-10.7c0.7-4.4,1.1-10.6,1.1-18.5V56.1c0-3.7-0.1-8.7-0.2-15.1
		c-0.1-6.4-0.4-10.1-0.8-11.1c-0.4-1-1.3-1.7-2.5-2.2c-1.2-0.5-4.5-0.8-10-0.9l-0.6-0.6v-3.3l0.6-0.6c7,0.4,12.5,0.6,16.7,0.6
		c3.6,0,9.1-0.2,16.6-0.6l0.6,0.6v3.4l-0.6,0.6c-4.4,0.1-7.3,0.3-8.6,0.5c-1.3,0.3-2.3,0.6-2.8,1.2c-0.5,0.5-0.9,1.3-1.2,2.4
		c-0.3,1.1-0.4,4.2-0.5,9.3l-0.2,15.9v21.4c0,8.6-0.3,15.3-1,20.2c-0.7,4.9-2.1,9-4.4,12.2c-2.3,3.2-5,5.8-8.1,8
		c-3.1,2.1-7.1,3.8-12,4.9c-4.9,1.2-10,1.7-15.2,1.7c-6.6,0-12.4-0.7-17.4-2.2c-5.1-1.5-9-3.4-11.9-5.8c-2.9-2.4-5-4.9-6.3-7.6
		c-1.3-2.7-2.1-5.8-2.5-9.4c-0.4-3.6-0.6-9.1-0.6-16.5V56.1l-0.1-13.7c0-5.4-0.2-8.8-0.4-10.4c-0.2-1.6-0.5-2.6-1-3.1
		c-0.4-0.5-1.3-0.9-2.6-1.3c-1.3-0.3-4.4-0.6-9.4-0.8l-0.6-0.5V22.8z"/>
	<path class="st0" d="M329.1,22.8l0.6-0.5c8.6,0.4,15.3,0.6,20.1,0.6c5.3,0,12.5-0.2,21.5-0.5c3.3-0.1,5.8-0.1,7.3-0.1
		c11.9,0,19.9,2.2,24.2,6.5c4.2,4.3,6.3,9.4,6.3,15.4c0,3.9-1,7.8-3.1,11.6c-2.1,3.8-5.1,7.1-9.2,9.8c-4,2.7-9.6,4.7-16.7,6.1
		c1.3,1.8,3.7,5,7.1,9.5l10,13.3c3.2,4.4,6.7,9,10.4,13.9c3.7,4.9,6.1,7.6,7.2,8.2c1.1,0.6,2,1,2.8,1.2c0.8,0.1,2,0.2,3.7,0.2
		l0.6,0.6v3.3l-0.6,0.6c-2.3-0.3-4.9-0.4-8-0.4c-3.3,0-7,0.1-10.9,0.4c-3.2-3.9-8.3-10.8-15.3-20.5c-8.1-11.3-16.4-21.7-24.8-31.4
		l0.7-2.2c2.4,0.1,4.3,0.2,5.7,0.2c8.1,0,14.5-1.9,19.1-5.9c4.6-3.9,6.9-9.3,6.9-16.2c0-6.2-2.1-10.9-6.2-14.1
		c-4.1-3.2-9.7-4.8-16.8-4.8c-4.9,0-9.6,0.7-14,2c-0.7,1-1.1,9.8-1.1,26.4v32.6l0.1,13.7c0,5.3,0.2,8.7,0.4,10.3
		c0.2,1.6,0.6,2.6,1,3.1c0.4,0.5,1.3,1,2.6,1.3c1.3,0.4,4.4,0.6,9.4,0.8l0.6,0.4v3.5l-0.6,0.6c-0.2,0-4.4-0.1-12.4-0.4
		c-3.3-0.1-5.9-0.1-7.8-0.1c-1.5,0-8.2,0.2-20.2,0.6l-0.6-0.6v-3.5l0.6-0.4c4.4-0.2,7.3-0.4,8.7-0.7c1.5-0.3,2.4-0.6,2.9-1.1
		c0.5-0.4,0.9-1.4,1.2-2.9c0.3-1.5,0.5-4.7,0.5-9.7l0.1-14.9V56.1L343,42.3c0-5.4-0.2-8.8-0.4-10.4c-0.2-1.6-0.5-2.6-1-3.1
		c-0.4-0.5-1.3-0.9-2.6-1.3c-1.3-0.3-4.4-0.6-9.4-0.8l-0.6-0.5V22.8z"/>
	<path class="st0" d="M461.3,22.8l0.6-0.5c11.7,0.4,18.4,0.6,20.2,0.6c1.6,0,8.3-0.2,20.2-0.6l0.6,0.5v3.5l-0.6,0.5
		c-3.2,0.1-5.7,0.2-7.5,0.4c-1.8,0.2-3,0.5-3.8,1.1c-0.8,0.5-1.3,1.7-1.6,3.6c-0.3,1.9-0.4,4.5-0.4,7.9l-0.1,16.2v31.2
		c0,7.8,0,13.3,0.1,16.4l0.4,12.2h14.4c11.5,0,18.6-0.1,21.5-0.4c2.8-0.3,5.6-1,8.2-2c0.5-1.2,1.3-3.9,2.2-8.1
		c1-4.2,1.5-6.7,1.5-7.3l0.6-0.6h3.5l0.5,0.6c-0.4,1.9-0.8,5.5-1.2,10.9c-0.4,5.4-0.6,9.8-0.6,13.1l-0.6,0.6
		c-8.9-0.3-20.7-0.4-35.2-0.4l-20.6-0.1c-4.7,0-9.5,0.2-14.4,0.6l-0.6-0.6v-2.3l0.6-0.7c2.9-1.5,4.5-2.4,4.8-2.7
		c0.3-0.3,0.6-3.4,0.9-9.1c0.3-5.7,0.5-12.6,0.5-20.7V56.1l-0.1-13.7c0-5.4-0.2-8.8-0.4-10.4c-0.2-1.6-0.5-2.6-1-3.1
		c-0.4-0.5-1.3-0.9-2.6-1.3c-1.3-0.3-4.4-0.6-9.4-0.8l-0.6-0.5V22.8z"/>
	<path class="st0" d="M550.2,73.3c0-7,1-13.6,3-19.7c2-6.1,5.5-11.8,10.3-17c4.9-5.2,10.7-9.2,17.6-12.1c6.9-2.8,14.6-4.3,23.3-4.3
		c16,0,28.8,4.4,38.3,13.1c9.5,8.7,14.2,20.6,14.2,35.7c0,10.6-2.3,20.2-7,28.6s-11.3,15-20,19.7c-8.7,4.7-18.4,7-29.2,7
		c-7.7,0-14.7-1.3-21.1-3.8c-6.4-2.6-11.9-6.4-16.5-11.5s-7.8-10.9-9.9-17.6C551.2,84.9,550.2,78.8,550.2,73.3z M564.9,68.7
		c0,5.7,0.9,11.9,2.8,18.5c1.9,6.6,4.6,12.3,8.3,17c3.7,4.7,7.9,8.2,12.8,10.5c4.8,2.3,10.3,3.5,16.5,3.5c7.3,0,13.8-1.7,19.5-5
		c5.7-3.3,10-8.5,13-15.5c3-7,4.4-14.9,4.4-23.6c0-9.5-1.7-18.1-5.1-25.7c-3.4-7.7-8.2-13.2-14.5-16.7c-6.2-3.5-13.2-5.2-20.8-5.2
		c-11.4,0-20.4,3.6-27,10.7C568.2,44.2,564.9,54.7,564.9,68.7z"/>
	<path class="st0" d="M765.9,83.5v2.1l-0.3,0.8l-3.5,2c-0.8,0.5-1.3,0.9-1.5,1.2c-0.1,0.3-0.3,1.7-0.5,4.2c-0.2,2.5-0.3,5.6-0.3,9.2
		c0,4.1,0.3,8.5,0.8,13.3l-0.4,0.7c-12.9,4.9-26.1,7.4-39.7,7.4c-10.4,0-19.9-2-28.3-5.9c-8.4-3.9-15.1-9.8-20-17.6
		s-7.4-17-7.4-27.6c0-16.3,5.6-29.2,16.7-38.8c11.1-9.6,25.6-14.4,43.5-14.4c13.2,0,25,2.2,35.5,6.7l0.5,0.8
		c-0.8,3.1-1.8,9.8-3,19.8l-0.6,0.5h-3.2l-0.6-0.6l-0.4-7.5c-0.1-2.4-0.3-3.9-0.5-4.3c-0.2-0.4-0.7-1-1.5-1.7
		c-0.8-0.7-3-1.8-6.5-3.2c-3.5-1.5-7-2.6-10.5-3.2c-3.5-0.7-7.3-1-11.3-1c-8.6,0-16.2,1.8-22.8,5.4c-6.6,3.6-11.6,8.8-15,15.6
		c-3.4,6.8-5,14.4-5,22.8c0,8.6,1.8,16.7,5.4,24.1c3.6,7.4,8.8,13.3,15.6,17.4c6.8,4.2,14.6,6.3,23.6,6.3c3.9,0,7.9-0.4,11.9-1.2
		c4.1-0.8,7.4-1.9,10-3.3c0.4-1.5,0.6-4.5,0.6-9.1v-7.8c0-3.7-0.2-6-0.7-6.9c-0.5-0.9-1.6-1.6-3.5-1.9c-1.9-0.4-5.9-0.6-12-0.7
		l-0.6-0.6v-3.1l0.6-0.6l4.3,0.1c7.4,0.2,13.4,0.4,18,0.4c2.7,0,6.6-0.1,11.8-0.4L765.9,83.5z"/>
	<path class="st0" d="M773.9,73.3c0-7,1-13.6,3-19.7c2-6.1,5.5-11.8,10.3-17c4.9-5.2,10.7-9.2,17.6-12.1c6.9-2.8,14.6-4.3,23.3-4.3
		c16,0,28.8,4.4,38.3,13.1c9.5,8.7,14.2,20.6,14.2,35.7c0,10.6-2.3,20.2-7,28.6s-11.3,15-20,19.7c-8.7,4.7-18.4,7-29.2,7
		c-7.7,0-14.7-1.3-21.1-3.8c-6.4-2.6-11.9-6.4-16.5-11.5S779,98.3,777,91.6C774.9,84.9,773.9,78.8,773.9,73.3z M788.6,68.7
		c0,5.7,0.9,11.9,2.8,18.5c1.9,6.6,4.6,12.3,8.3,17c3.7,4.7,7.9,8.2,12.8,10.5c4.8,2.3,10.3,3.5,16.5,3.5c7.3,0,13.8-1.7,19.5-5
		c5.7-3.3,10-8.5,13-15.5c3-7,4.4-14.9,4.4-23.6c0-9.5-1.7-18.1-5.1-25.7c-3.4-7.7-8.2-13.2-14.5-16.7c-6.2-3.5-13.2-5.2-20.8-5.2
		c-11.4,0-20.4,3.6-27,10.7C791.8,44.2,788.6,54.7,788.6,68.7z"/>
</g>
</svg>
