<?xml version="1.0" encoding="utf-8"?>
<!-- Generator: Adobe Illustrator 26.0.2, SVG Export Plug-In . SVG Version: 6.00 Build 0)  -->
<svg version="1.1" id="Layer_1" xmlns="http://www.w3.org/2000/svg" xmlns:xlink="http://www.w3.org/1999/xlink" x="0px" y="0px"
	 viewBox="0 0 888.1 162.1" style="enable-background:new 0 0 888.1 162.1;" xml:space="preserve">
<style type="text/css">
	.st0{fill:#FFFFFF;}
</style>
<g>
	<path class="st0" d="M4.5,60.4c6-1.7,9.9-0.3,13,5.4c4.4,8.2,9.7,16,15.4,25.2c0-11.1,0-20.7,0-30.7c3.1,0,5.8,0,8.8,0
		c0,15.5,0,31.1,0,46.6c-8.6,1.6-8.6,1.6-13.1-5.4c-4.8-7.7-9.6-15.3-15.2-24.2c0,10.8,0,20.2,0,29.9c-3.2,0-5.9,0-8.9,0
		C4.5,91.5,4.5,75.9,4.5,60.4z"/>
	<path class="st0" d="M500.2,60.4c6.4-1.8,10.3,0.2,13.3,5.9c4.3,8.1,9.5,15.6,15.1,23.2c0-9.6,0-19.3,0-29.3c3.1,0,5.8,0,8.8,0
		c0,15.6,0,31.2,0,46.8c-6,1.6-10.2,0.4-13.3-5.5c-4.2-8-9.4-15.4-15.1-24.3c0,10.9,0,20.4,0,30.1c-3.2,0-5.9,0-8.8,0
		C500.2,91.6,500.2,76.1,500.2,60.4z"/>
	<path class="st0" d="M387.9,72.7c-3,0.7-5.8,1.3-9,2c-2.3-5-5.9-8.2-11.8-7.9c-5.9,0.3-10.9,3.6-11.9,9.3c-0.8,4.8-1,10,0.1,14.6
		c2.2,9.7,13,13.1,22.2,6.3c1.5-1.1,1.4-4.3,2.2-7.3c-4.3,0-7.7,0-11.4,0c0-2.9,0-5.2,0-7.8c0.7-0.1,1.3-0.3,2-0.3
		c5.9,0,11.9,0,18.5,0c0,6.3,0.1,12.3-0.1,18.3c0,1.1-1.4,2.6-2.5,3.3c-6.7,4.1-14,6-21.8,4.9c-9.8-1.4-16.5-6.7-19-16.4
		c-2.7-10.4-1.6-20.3,7-27.7c7.9-6.8,17.3-6.7,26.6-3C383.9,63,386.9,67,387.9,72.7z"/>
	<path class="st0" d="M91.6,86.6c0,4.5,0,8.4,0,12.9c8.5,0,17,0,25.9,0c0,2.9,0,5.2,0,7.8c-11.8,0-23.5,0-35.5,0
		c0-15.6,0-31.2,0-47.1c11.4,0,22.7,0,34.5,0c0,2.4,0,4.7,0,7.6c-8.2,0-16.4,0-24.8,0c0,3.8,0,7,0,10.8c7.7,0,15.3,0,23.3,0
		c0,2.8,0,5.1,0,7.9C107.2,86.6,99.5,86.6,91.6,86.6z"/>
	<path class="st0" d="M436.5,78.7c7.8,0,15.2,0,23,0c0,2.6,0,5,0,7.8c-7.6,0-15.1,0-23,0c0,4.4,0,8.4,0,13c8.5,0,17,0,25.8,0
		c0,2.8,0,5,0,7.6c-11.8,0-23.6,0-35.6,0c0-15.5,0-31,0-46.9c11.4,0,22.8,0,34.6,0c0,2.2,0,4.5,0,7.3c-8.1,0-16.2,0-24.8,0
		C436.5,71.5,436.5,74.8,436.5,78.7z"/>
	<path class="st0" d="M730.6,99.4c0,3.1,0,5.3,0,7.9c-11.9,0-23.6,0-35.6,0c0-15.6,0-31.2,0-47.1c11.4,0,22.7,0,34.4,0
		c0,2.3,0,4.7,0,7.6c-8.2,0-16.4,0-24.8,0c0,3.8,0,7,0,10.8c7.6,0,15.3,0,23.3,0c0,2.8,0,5.1,0,7.9c-7.7,0-15.3,0-23.3,0
		c0,4.5,0,8.4,0,12.9C713.1,99.4,721.6,99.4,730.6,99.4z"/>
	<path class="st0" d="M882.4,60.2c0,15.6,0,31.1,0,46.9c-2.9,0-5.7,0-9.2,0c0-6.7,0-13.4,0-20.2c-6.5,0-12.4,0-18.7,0
		c0,6.8,0,13.3,0,20.2c-3.3,0-6.2,0-9.4,0c0-15.5,0-31.1,0-47c3,0,5.9,0,9.2,0c0,6,0,11.9,0,18.2c6.3,0,12.2,0,18.7,0
		c0-5.9,0-11.9,0-18.2C876.4,60.2,879.3,60.2,882.4,60.2z"/>
	<path class="st0" d="M150.7,106.9c4.7-7.2,9.1-14.1,13.9-20.8c1.8-2.6,1.7-4.5,0-7c-4.2-6-8.1-12.3-12.1-18.4
		c12.8-5.1,14.3,6.9,20.2,13c1.6-2.3,3.4-4.2,4.4-6.5c3.1-6.8,8.1-9,15.7-6.7c-4.1,6.3-8.1,12.6-12.4,18.8c-1.7,2.4-1.7,4.1,0,6.5
		c4.8,6.9,9.2,13.9,13.9,21c-7.3,1.8-12.7,0.8-15.8-6.3c-1.4-3.1-3.7-5.8-5.9-9.1c-2.2,3.3-4.8,6.1-6.1,9.3
		C163.3,107.9,157.9,108.6,150.7,106.9z"/>
	<path class="st0" d="M806.6,72.7c-3.2,0.7-6,1.3-8.8,1.9c-3.4-6.3-7.3-8.6-12.6-7.7c-5.2,0.9-8.6,4.8-9.4,11.3
		c-0.4,2.9-0.4,6-0.1,8.9c0.8,7.5,4.4,11.7,10,12.4c5.6,0.7,9.1-1.9,12.5-9.7c2.8,0.9,5.7,1.9,8.6,2.8c-3,10.8-11.2,16.1-22.2,14.8
		c-11.3-1.3-18.7-10.2-19.1-22.9c-0.4-14,6.4-23.3,18.5-25.4C794.6,57.3,803.1,62.2,806.6,72.7z"/>
	<path class="st0" d="M249.2,107.3c-3.7,0-6.4,0-9.8,0c0-13.1,0-26.1,0-39.4c-4.8,0-9,0-13.6,0c0-2.8,0-5.1,0-7.7
		c12.3,0,24.4,0,36.9,0c0,2.5,0,4.8,0,7.6c-4.4,0-8.7,0-13.5,0C249.2,81,249.2,94,249.2,107.3z"/>
	<path class="st0" d="M634.9,67.7c-5.2,0-9.4,0-13.9,0c0-2.6,0-4.9,0-7.5c12.3,0,24.6,0,37.1,0c0,2.5,0,4.7,0,7.5
		c-4.5,0-8.8,0-13.6,0c0,13.4,0,26.2,0,39.4c-3.3,0-6.1,0-9.6,0C634.9,94.3,634.9,81.4,634.9,67.7z"/>
</g>
</svg>
